<svg width="24" height="24" viewBox="0 0 24 24" fill="none" xmlns="http://www.w3.org/2000/svg">
<g id="discord">
<path id="Vector" d="M18.9313 5.26461C17.6344 4.66943 16.266 4.24466 14.8601 4.00087C14.8473 3.99872 14.8343 4.00058 14.8226 4.00617C14.811 4.01177 14.8014 4.02083 14.7951 4.03212C14.6188 4.34461 14.4238 4.75336 14.2876 5.07336C12.7721 4.84337 11.2306 4.84337 9.71513 5.07336C9.56315 4.71688 9.39122 4.36925 9.20014 4.03212C9.19372 4.02096 9.18408 4.012 9.17248 4.00642C9.16088 4.00084 9.14786 3.99891 9.13514 4.00087C7.72898 4.24367 6.36041 4.66848 5.06393 5.26461C5.05284 5.26884 5.04356 5.27679 5.03768 5.2871C2.44521 9.16081 1.73396 12.9395 2.08271 16.6707C2.08396 16.6882 2.09521 16.7057 2.10896 16.717C3.61861 17.8352 5.30717 18.689 7.10266 19.242C7.11533 19.246 7.12896 19.2458 7.14154 19.2415C7.15413 19.2373 7.16503 19.2291 7.17266 19.2182C7.55765 18.6932 7.90015 18.1395 8.19515 17.557C8.19922 17.549 8.20154 17.5403 8.20195 17.5314C8.20237 17.5225 8.20087 17.5136 8.19755 17.5053C8.19424 17.497 8.18918 17.4895 8.18273 17.4833C8.17628 17.4771 8.16858 17.4724 8.16015 17.4695C7.62161 17.2625 7.10003 17.0138 6.60016 16.7257C6.59103 16.7205 6.58335 16.713 6.57782 16.704C6.57228 16.695 6.56906 16.6848 6.56844 16.6743C6.56782 16.6638 6.56982 16.6532 6.57427 16.6437C6.57871 16.6341 6.58546 16.6258 6.59391 16.6195C6.69891 16.5407 6.80391 16.4582 6.90391 16.3757C6.91274 16.3686 6.92334 16.3641 6.93457 16.3625C6.9458 16.361 6.95724 16.3625 6.96766 16.367C10.2414 17.862 13.7851 17.862 17.0188 16.367C17.0296 16.3622 17.0415 16.3604 17.0532 16.362C17.0649 16.3635 17.0759 16.3683 17.0851 16.3757C17.1851 16.4582 17.2901 16.5407 17.395 16.6195C17.4036 16.6257 17.4104 16.6339 17.4149 16.6434C17.4195 16.6529 17.4216 16.6634 17.4211 16.674C17.4206 16.6845 17.4175 16.6947 17.4121 16.7038C17.4067 16.7128 17.3991 16.7203 17.39 16.7257C16.8913 17.0164 16.3691 17.2648 15.8288 17.4682C15.8205 17.4714 15.8129 17.4764 15.8065 17.4827C15.8002 17.4891 15.7953 17.4967 15.7921 17.5051C15.7889 17.5134 15.7876 17.5224 15.7881 17.5313C15.7886 17.5403 15.791 17.549 15.7951 17.557C16.0951 18.1382 16.4388 18.6932 16.8163 19.2182C16.8239 19.2291 16.8348 19.2373 16.8474 19.2415C16.86 19.2458 16.8736 19.246 16.8863 19.242C18.6848 18.6907 20.3761 17.8368 21.8875 16.717C21.895 16.7117 21.9013 16.7048 21.9058 16.6968C21.9103 16.6888 21.913 16.6799 21.9138 16.6707C22.3312 12.357 21.215 8.60957 18.9563 5.28835C18.954 5.28287 18.9506 5.27792 18.9463 5.27383C18.942 5.26974 18.9369 5.2666 18.9313 5.26461ZM8.68389 14.3983C7.69765 14.3983 6.88641 13.4933 6.88641 12.3833C6.88641 11.272 7.68265 10.3671 8.68389 10.3671C9.69263 10.3671 10.4964 11.2795 10.4814 12.3833C10.4814 13.4933 9.68513 14.3983 8.68389 14.3983ZM15.3288 14.3983C14.3438 14.3983 13.5313 13.4933 13.5313 12.3833C13.5313 11.272 14.3276 10.3671 15.3288 10.3671C16.3376 10.3671 17.1426 11.2795 17.1263 12.3833C17.1263 13.4933 16.3376 14.3983 15.3288 14.3983Z" fill="#98A2B3"/>
</g>
</svg>
