<?xml version="1.0" standalone="no"?>
<!DOCTYPE svg PUBLIC "-//W3C//DTD SVG 20010904//EN"
 "http://www.w3.org/TR/2001/REC-SVG-20010904/DTD/svg10.dtd">
<svg version="1.0" xmlns="http://www.w3.org/2000/svg"
 width="300.000000pt" height="300.000000pt" viewBox="0 0 300.000000 300.000000"
 preserveAspectRatio="xMidYMid meet">
<metadata>
Created by potrace 1.10, written by Peter Selinger 2001-2011
</metadata>

<!-- White background to provide contrast -->
<rect width="100%" height="100%" fill="#FFFFFF" />

<g transform="translate(0.000000,300.000000) scale(0.100000,-0.100000)"
fill="#000000" stroke="none">
<path d="M10 1500 l0 -1490 1490 0 1490 0 0 1490 0 1490 -1490 0 -1490 0 0
-1490z m370 1029 c517 -737 519 -741 513 -767 -6 -26 12 -52 37 -52 11 0 46
-38 90 -97 40 -54 79 -103 87 -110 8 -6 14 -14 14 -17 -1 -3 2 -6 7 -7 12 -1
32 -21 32 -31 0 -6 -8 -4 -17 3 -16 13 104 -168 166 -250 14 -19 21 -32 16
-30 -22 9 -513 258 -545 276 -19 11 -198 102 -397 203 l-363 182 0 574 0 574
23 0 c18 -1 83 -88 337 -451z m18 313 c63 -198 172 -468 262 -646 43 -86 76
-156 75 -156 -2 0 -31 42 -66 93 -35 50 -178 256 -318 456 -141 201 -260 371
-264 378 -6 10 19 13 130 13 l138 0 43 -138z m310 -135 c148 -211 190 -278
185 -295 -7 -27 12 -52 41 -53 16 0 69 -69 227 -297 l206 -297 -155 -3 c-103
-2 -158 1 -162 8 -5 8 -15 7 -33 -1 -34 -16 -34 -22 3 -36 23 -8 30 -8 30 0 0
9 46 11 167 10 l166 -2 160 -228 c88 -125 229 -327 314 -447 85 -120 150 -222
146 -227 -4 -4 -51 17 -103 48 -246 142 -465 310 -651 500 -109 110 -269 298
-267 312 1 3 -2 13 -5 21 -3 8 -7 26 -9 40 -2 19 -10 26 -29 28 -22 3 -40 24
-100 120 -149 239 -285 537 -402 880 l-66 192 73 0 74 0 190 -273z m2272 -993
c0 -1009 -3 -1265 -12 -1262 -7 3 -62 20 -123 38 -327 98 -731 266 -750 311
-8 18 -18 24 -44 25 -27 0 -35 4 -36 20 -1 10 -140 216 -308 456 -169 241
-307 439 -307 440 0 2 121 3 270 3 186 0 270 -3 272 -11 2 -7 14 -6 38 4 l35
14 -35 12 c-19 6 -36 8 -38 4 -2 -5 -128 -8 -280 -8 l-277 0 -210 302 c-179
256 -210 306 -210 337 0 33 -3 36 -32 39 -17 2 -34 9 -36 17 -6 14 -261 382
-329 473 l-39 52 1226 0 1225 0 0 -1266z m-1895 -436 l260 -130 315 -451 c173
-248 350 -500 393 -560 42 -60 77 -111 77 -113 0 -2 -475 -4 -1055 -4 l-1055
0 0 900 0 899 403 -205 c221 -113 519 -264 662 -336z m397 -129 c57 -45 133
-102 170 -127 37 -25 65 -49 61 -55 -4 -6 -1 -7 7 -2 8 5 17 2 24 -6 6 -8 68
-46 138 -84 71 -39 128 -75 128 -82 0 -25 33 -45 62 -39 23 5 61 -9 173 -63
79 -38 146 -67 148 -65 2 3 25 -4 50 -15 65 -28 281 -103 420 -146 l117 -37 0
-49 0 -49 -280 140 c-154 77 -280 138 -280 136 0 -3 126 -69 280 -148 l280
-143 0 -147 0 -148 -188 0 -188 0 -248 355 c-137 195 -256 361 -264 367 -20
16 23 -47 284 -419 l213 -303 -224 0 c-169 0 -224 3 -228 12 -6 16 -733 1056
-755 1081 -8 9 -12 17 -8 17 3 0 57 -27 119 -60 115 -61 198 -99 184 -84 -5 5
-79 45 -165 89 l-157 80 -97 138 c-54 76 -98 141 -98 144 0 3 49 -42 110 -100
60 -59 156 -143 212 -188z"/>
<path d="M595 1972 c-5 -4 -10 -16 -10 -27 0 -12 -6 -19 -14 -17 -22 5 -51
-29 -51 -60 0 -15 3 -28 8 -29 45 -5 65 -3 74 8 6 8 8 16 4 20 -3 3 -6 1 -6
-5 0 -7 -4 -12 -9 -12 -5 0 -3 25 5 56 16 59 15 78 -1 66z m-24 -94 c-5 -15
-15 -29 -20 -33 -15 -9 -14 48 1 63 18 18 30 -1 19 -30z"/>
<path d="M128 1962 c10 -7 9 -18 -2 -57 -8 -26 -21 -52 -28 -56 -8 -6 0 -8 22
-8 19 0 30 3 24 5 -6 3 -9 16 -6 29 3 19 11 25 40 27 38 3 59 25 49 52 -5 12
-19 16 -59 16 -30 0 -48 -4 -40 -8z m82 -11 c0 -25 -14 -41 -36 -41 -25 0 -28
7 -18 34 6 17 54 23 54 7z"/>
<path d="M656 1956 c7 -18 -15 -99 -30 -108 -6 -4 5 -8 24 -8 23 0 30 3 21 9
-24 15 -4 51 29 51 26 0 60 22 60 39 0 18 -28 31 -67 31 -32 0 -41 -3 -37 -14z
m77 -2 c12 -13 -14 -44 -37 -44 -19 0 -22 4 -18 25 3 18 11 25 26 25 13 0 26
-3 29 -6z"/>
<path d="M392 1923 c-2 -28 -6 -32 -34 -36 l-33 -4 32 -1 c28 -2 32 -6 36 -34
l4 -33 1 32 c2 28 6 32 35 36 l32 4 -32 1 c-28 2 -32 6 -36 35 l-4 32 -1 -32z"/>
<path d="M227 1880 c-9 -11 -13 -20 -8 -20 4 0 6 -11 3 -25 -3 -18 0 -25 11
-25 9 0 19 4 22 10 3 6 -1 7 -10 4 -12 -5 -14 -2 -8 12 3 11 10 21 13 24 4 3
4 13 1 23 -6 16 -8 16 -24 -3z"/>
<path d="M760 1885 c0 -8 -4 -15 -8 -15 -4 0 -7 -12 -6 -27 1 -30 26 -43 40
-22 5 9 2 10 -9 6 -21 -8 -22 7 -1 27 8 9 11 16 5 16 -6 0 -8 7 -5 15 4 8 1
15 -5 15 -6 0 -11 -7 -11 -15z"/>
<path d="M913 2310 c-8 -23 -8 -30 0 -30 9 0 12 -56 12 -205 0 -160 -3 -205
-13 -205 -9 0 -8 -8 4 -32 l16 -32 13 30 c6 16 8 31 3 32 -11 5 -10 412 1 412
5 0 4 14 -2 30 -6 17 -14 30 -17 30 -3 0 -11 -13 -17 -30z"/>
<path d="M1047 1952 c15 -10 -9 -111 -29 -123 -19 -13 80 -11 103 1 21 12 26
45 8 56 -8 5 -6 10 5 16 21 12 21 44 0 52 -23 9 -101 7 -87 -2z m78 -27 c0
-14 -8 -21 -27 -23 -28 -3 -33 4 -22 33 9 23 49 15 49 -10z m-10 -60 c0 -12
-10 -23 -27 -29 -34 -12 -38 -9 -31 27 5 23 10 28 32 25 18 -2 26 -9 26 -23z"/>
<path d="M1005 1683 c49 -49 965 -826 986 -837 22 -12 -20 25 -511 444 -408
349 -544 461 -475 393z"/>
<path d="M1047 2602 c15 -10 -9 -111 -29 -123 -8 -5 8 -9 39 -9 34 0 57 5 67
16 19 18 21 40 5 50 -8 5 -6 10 5 16 21 12 21 44 0 52 -23 9 -101 7 -87 -2z
m78 -27 c0 -14 -8 -21 -27 -23 -28 -3 -33 4 -22 33 9 23 49 15 49 -10z m-10
-60 c0 -12 -10 -23 -27 -29 -34 -12 -38 -9 -31 27 5 23 10 28 32 25 18 -2 26
-9 26 -23z"/>
<path d="M1190 2599 c0 -5 -4 -8 -9 -4 -6 3 -9 -4 -8 -15 1 -22 23 -34 40 -23
15 10 16 35 2 45 -14 11 -25 10 -25 -3z"/>
<path d="M1428 1965 c4 -21 1 -25 -21 -25 -30 0 -50 -29 -45 -63 2 -18 10 -22
40 -24 25 -1 38 3 42 14 5 13 4 14 -8 4 -13 -11 -13 -5 0 41 17 66 17 78 0 78
-9 0 -12 -8 -8 -25z m-8 -44 c0 -20 -20 -61 -30 -61 -11 0 -13 30 -4 54 7 17
34 22 34 7z"/>
<path d="M1469 1924 c-8 -10 -8 -14 0 -14 6 0 11 5 11 10 0 6 5 10 11 10 6 0
9 -15 7 -37 -2 -30 1 -38 16 -41 18 -4 36 13 36 33 -1 6 -5 2 -11 -7 -16 -28
-32 -22 -24 10 7 30 25 54 25 33 0 -7 5 -9 10 -6 22 13 8 24 -30 23 -22 0 -45
-7 -51 -14z"/>
<path d="M1585 1894 c-4 -10 -9 -31 -11 -46 -3 -22 0 -28 16 -28 11 0 20 5 20
11 0 5 -4 7 -10 4 -12 -8 -13 17 -1 31 5 5 6 18 2 28 -7 19 -8 19 -16 0z"/>
<path d="M2201 957 c-18 -32 -43 -67 -54 -78 l-21 -19 28 0 c15 0 25 4 22 9
-11 18 6 41 30 41 26 0 32 -18 12 -38 -9 -9 -4 -12 22 -12 26 0 31 3 22 12 -7
7 -13 28 -13 47 -1 20 -4 50 -8 66 l-6 30 -34 -58z"/>
<path d="M127 1642 c10 -6 9 -20 -2 -61 -15 -58 -26 -71 -64 -71 -13 0 -22 -2
-19 -5 3 -4 29 -3 58 1 28 4 47 10 41 13 -6 4 -8 17 -4 29 4 16 13 22 33 22
15 0 35 9 46 21 28 31 8 53 -52 57 -27 1 -44 -1 -37 -6z m79 -17 c8 -20 -13
-45 -37 -45 -19 0 -24 16 -13 44 8 20 43 21 50 1z"/>
<path d="M227 1550 c-9 -11 -13 -20 -8 -20 4 0 6 -12 3 -26 -4 -21 -1 -25 13
-22 10 1 20 9 21 16 1 7 0 8 -3 2 -2 -5 -9 -10 -14 -10 -9 0 0 31 11 40 4 3 4
13 1 23 -6 16 -8 16 -24 -3z"/>
</g>
</svg>
